<?xml version="1.0" encoding="utf-8"?>
<!-- Generator: Adobe Illustrator 25.0.0, SVG Export Plug-In . SVG Version: 6.00 Build 0)  -->
<svg version="1.1" id="Слой_1" xmlns="http://www.w3.org/2000/svg" xmlns:xlink="http://www.w3.org/1999/xlink" x="0px" y="0px"
	 viewBox="0 0 176 50" style="enable-background:new 0 0 176 50;" xml:space="preserve">
<g>
	<g>
		<path d="M144.06,32.77c0.08-1.02,0.16-2.05,0.25-3.07c0.12-1.43,0.23-2.86,0.35-4.29c0.19-2.3,0.39-4.61,0.58-6.91
			c0.01-0.11,0.03-0.21,0.02-0.32c-0.07-0.61,0.31-1.04,0.6-1.5c0.46-0.75,0.93-1.48,1.4-2.22c0.02-0.04,0.05-0.07,0.12-0.15
			c-0.05,0.69-0.09,1.31-0.14,1.94c-0.07,0.96-0.14,1.93-0.21,2.89c-0.13,1.72-0.27,3.45-0.39,5.17c-0.13,1.74-0.25,3.48-0.38,5.22
			c-0.13,1.76-0.27,3.52-0.4,5.27c-0.01,0.13-0.01,0.25-0.01,0.38c0,0.15-0.07,0.2-0.23,0.19c-0.51-0.01-1.19,0-1.72,0
			c-0.06,0-0.11-0.05-0.1-0.11C143.84,34.82,144,33.42,144.06,32.77z"/>
		<path d="M172.14,35.41c-0.4,0-0.8,0-1.22,0c-0.39-5.87-0.77-11.71-1.15-17.54c0.02-0.01,0.04-0.01,0.06-0.02
			c0.23,0.42,0.46,0.84,0.68,1.26c0.14,0.26,0.31,0.51,0.41,0.78c0.09,0.24,0.11,0.51,0.13,0.77c0.19,2.34,0.37,4.68,0.56,7.02
			c0.17,2.06,0.33,4.13,0.5,6.19c0,0.04,0.03,0.08,0.04,0.12C172.14,34.47,172.14,34.94,172.14,35.41z"/>
		<path d="M166.21,35.38c-2.67,0-5.3,0-7.95,0c0-9.04,0-18.06,0-27.14c0.21,0.17,0.39,0.32,0.56,0.47c0.94,0.8,1.88,1.61,2.82,2.42
			c0.08,0.07,0.14,0.18,0.16,0.28c0.24,1.25,0.47,2.49,0.7,3.74c0.37,2.03,0.74,4.07,1.12,6.1c0.29,1.57,0.58,3.15,0.87,4.72
			c0.3,1.63,0.6,3.26,0.9,4.9c0.26,1.42,0.53,2.85,0.79,4.27C166.19,35.21,166.2,35.28,166.21,35.38z M158.75,28.37
			c0,0.8,0,1.57,0.01,2.34c0,0.05,0.08,0.14,0.14,0.16c0.23,0.08,0.48,0.15,0.71,0.22c1.51,0.45,3.02,0.91,4.53,1.36
			c0.07,0.02,0.15,0.03,0.25,0.05c-0.17-0.69-0.33-1.34-0.48-1.99c-0.05-0.23-0.16-0.34-0.38-0.42c-0.89-0.31-1.77-0.64-2.66-0.96
			C160.19,28.88,159.49,28.64,158.75,28.37z M158.75,24.79c0,0.79,0,1.54,0.01,2.3c0,0.06,0.11,0.15,0.18,0.17
			c1.12,0.38,2.24,0.76,3.36,1.13c0.49,0.16,0.98,0.33,1.5,0.5c-0.01-0.1-0.01-0.17-0.02-0.23c-0.13-0.67-0.27-1.33-0.39-2
			c-0.03-0.18-0.11-0.27-0.28-0.33c-0.87-0.3-1.73-0.62-2.6-0.93C159.94,25.2,159.37,25,158.75,24.79z M158.75,21.2
			c0,0.11,0,0.19,0,0.27c0,0.54,0,1.09,0,1.63c0,0.56,0,0.56,0.51,0.74c0.02,0.01,0.04,0.02,0.06,0.02
			c1.09,0.38,2.18,0.76,3.27,1.14c0.2,0.07,0.39,0.13,0.61,0.19c0-0.06,0-0.09,0-0.11c-0.15-0.8-0.3-1.6-0.46-2.4
			c-0.01-0.07-0.1-0.15-0.17-0.17c-0.89-0.32-1.78-0.63-2.67-0.94C159.53,21.46,159.16,21.34,158.75,21.2z M158.76,17.62
			c0,0.09-0.01,0.16-0.01,0.22c0,0.6,0,1.19,0,1.79c0,0.14,0.04,0.21,0.18,0.26c1.15,0.39,2.29,0.79,3.44,1.18
			c0.1,0.03,0.2,0.06,0.34,0.1c-0.15-0.72-0.3-1.38-0.43-2.06c-0.03-0.16-0.1-0.23-0.24-0.28c-0.85-0.31-1.69-0.64-2.54-0.96
			C159.26,17.8,159.02,17.71,158.76,17.62z M158.75,14.03c0,0.72,0,1.41,0.01,2.09c0,0.06,0.1,0.15,0.17,0.18
			c0.73,0.3,1.47,0.59,2.21,0.87c0.35,0.14,0.7,0.27,1.07,0.41c-0.01-0.1-0.01-0.16-0.02-0.22c-0.1-0.53-0.21-1.05-0.29-1.58
			c-0.03-0.22-0.13-0.32-0.32-0.41c-0.64-0.3-1.28-0.62-1.91-0.92C159.38,14.32,159.08,14.19,158.75,14.03z M161.82,14.45
			c-0.02-0.13-0.02-0.2-0.04-0.26c-0.12-0.55-0.24-1.09-0.35-1.64c-0.04-0.2-0.14-0.32-0.3-0.42c-0.46-0.32-0.91-0.64-1.36-0.97
			c-0.33-0.23-0.66-0.46-1.02-0.72c0,0.7,0.01,1.35,0,2c0,0.17,0.05,0.26,0.2,0.34c0.54,0.31,1.08,0.63,1.62,0.94
			C160.97,13.96,161.37,14.19,161.82,14.45z"/>
		<path d="M149.55,35.39c0.08-0.51,0.16-0.99,0.24-1.46c0.35-2.11,0.7-4.23,1.05-6.34c0.23-1.36,0.46-2.72,0.69-4.09
			c0.34-2.03,0.68-4.07,1.01-6.1c0.27-1.65,0.54-3.29,0.82-4.94c0.02-0.12,0.09-0.26,0.18-0.34c1.26-1.17,2.53-2.34,3.79-3.5
			c0.13-0.12,0.27-0.23,0.43-0.37c0.01,0.09,0.02,0.15,0.02,0.2c0,8.85,0,17.7,0,26.55c0,0.06-0.01,0.12,0,0.18
			c0.02,0.17-0.05,0.22-0.22,0.22c-0.73-0.01-1.47,0-2.2,0c-1.84,0-3.67,0-5.51,0C149.77,35.39,149.68,35.39,149.55,35.39z
			 M156.98,28.58c-0.13,0.05-0.23,0.08-0.32,0.12c-1.09,0.44-2.18,0.88-3.27,1.32c-0.68,0.28-1.37,0.55-2.05,0.84
			c-0.09,0.04-0.21,0.14-0.23,0.23c-0.11,0.6-0.19,1.21-0.27,1.81c-0.02,0.14-0.02,0.28-0.03,0.44c0.09-0.03,0.13-0.04,0.18-0.05
			c0.93-0.35,1.86-0.7,2.8-1.04c1-0.37,2-0.75,3.01-1.12c0.15-0.05,0.21-0.13,0.2-0.29c-0.01-0.52,0-1.04,0-1.56
			C156.98,29.05,156.98,28.83,156.98,28.58z M151.21,29.78c0.45-0.18,0.84-0.35,1.24-0.51c1.45-0.6,2.9-1.19,4.35-1.79
			c0.13-0.05,0.18-0.13,0.18-0.27c-0.01-0.69,0-1.37,0-2.06c0-0.06-0.01-0.11-0.02-0.21c-0.26,0.12-0.5,0.23-0.74,0.33
			c-1.44,0.64-2.87,1.29-4.32,1.92c-0.25,0.11-0.36,0.24-0.39,0.52C151.44,28.39,151.32,29.06,151.21,29.78z M151.74,26.04
			c0.14-0.06,0.22-0.09,0.31-0.13c0.47-0.21,0.94-0.41,1.41-0.62c1.12-0.49,2.24-0.98,3.36-1.46c0.13-0.06,0.16-0.13,0.16-0.25
			c-0.01-0.7,0-1.41,0-2.11c0-0.05-0.02-0.09-0.03-0.16c-0.29,0.14-0.57,0.26-0.84,0.39c-1.14,0.54-2.27,1.1-3.42,1.62
			c-0.4,0.18-0.68,0.36-0.7,0.88C151.98,24.79,151.84,25.39,151.74,26.04z M156.98,17.72c-0.14,0.07-0.24,0.12-0.33,0.17
			c-1.23,0.7-2.46,1.42-3.69,2.11c-0.19,0.1-0.25,0.23-0.28,0.42c-0.07,0.49-0.14,0.99-0.21,1.48c-0.03,0.2-0.05,0.41-0.08,0.64
			c0.09-0.04,0.14-0.05,0.18-0.08c1.28-0.66,2.55-1.34,3.85-1.97c0.43-0.21,0.68-0.45,0.57-0.95c-0.02-0.07,0-0.15,0-0.23
			C156.98,18.8,156.98,18.29,156.98,17.72z M156.98,14.04c-0.1,0.05-0.15,0.08-0.2,0.11c-1.12,0.75-2.25,1.49-3.37,2.25
			c-0.09,0.06-0.16,0.18-0.18,0.29c-0.07,0.38-0.12,0.77-0.18,1.16c-0.05,0.34-0.09,0.68-0.14,1.05c0.07-0.04,0.11-0.05,0.15-0.08
			c1.27-0.75,2.54-1.51,3.81-2.27c0.05-0.03,0.1-0.1,0.1-0.15C156.98,15.63,156.98,14.86,156.98,14.04z M156.98,10.47
			c-0.08,0.04-0.12,0.06-0.15,0.09c-0.94,0.76-1.87,1.52-2.8,2.29c-0.06,0.05-0.1,0.15-0.12,0.23c-0.09,0.39-0.18,0.78-0.26,1.17
			c-0.07,0.32-0.12,0.64-0.2,1.02c0.38-0.26,0.72-0.48,1.05-0.7c0.78-0.53,1.57-1.05,2.35-1.58c0.06-0.04,0.13-0.12,0.13-0.19
			C156.98,12.04,156.98,11.28,156.98,10.47z"/>
		<path d="M147.78,14.48c0.53,0.22,1.03,0.43,1.52,0.64c0.69,0.3,1.38,0.6,2.08,0.89c0.14,0.06,0.19,0.12,0.19,0.28
			c-0.01,1.47,0.01,2.93-0.01,4.4c-0.01,0.44-0.12,0.88-0.19,1.32c-0.12,0.75-0.24,1.49-0.36,2.24c-0.01,0.07-0.04,0.14-0.05,0.2
			c-0.05-0.05-0.1-0.12-0.16-0.14c-1.08-0.4-2.17-0.79-3.25-1.18c-0.01,0-0.01,0-0.07,0c-0.02,0.19-0.04,0.39-0.06,0.59
			c-0.01,0.19-0.09,0.42,0,0.55c0.08,0.13,0.33,0.15,0.51,0.2c0.91,0.29,1.81,0.57,2.72,0.85c0.15,0.05,0.19,0.11,0.15,0.26
			c-0.05,0.2-0.08,0.41-0.12,0.65c-1.11-0.39-2.19-0.78-3.31-1.17c-0.03,0.39-0.07,0.74-0.08,1.09c0,0.05,0.1,0.13,0.17,0.15
			c0.94,0.3,1.89,0.59,2.83,0.87c0.18,0.05,0.24,0.13,0.18,0.32c-0.05,0.18-0.07,0.37-0.1,0.59c-1.06-0.36-2.1-0.71-3.17-1.08
			c-0.03,0.39-0.07,0.74-0.09,1.1c0,0.04,0.09,0.11,0.15,0.13c0.9,0.27,1.81,0.54,2.72,0.79c0.19,0.05,0.25,0.12,0.2,0.31
			c-0.05,0.18-0.06,0.37-0.1,0.59c-1-0.33-1.99-0.66-3-1c-0.03,0.37-0.06,0.7-0.1,1.04c-0.02,0.15,0.08,0.17,0.19,0.2
			c0.83,0.24,1.67,0.48,2.5,0.72c0.08,0.02,0.15,0.05,0.24,0.08c-0.04,0.27-0.08,0.52-0.12,0.81c-0.35-0.11-0.68-0.2-1.01-0.3
			c-0.56-0.17-1.13-0.34-1.69-0.52c-0.12-0.04-0.19-0.01-0.2,0.12c-0.02,0.28-0.03,0.56-0.06,0.84c-0.01,0.14,0.04,0.2,0.17,0.23
			c0.78,0.2,1.55,0.41,2.32,0.6c0.21,0.05,0.29,0.11,0.24,0.36c-0.13,0.69-0.23,1.38-0.34,2.08c-0.02,0.14-0.05,0.23-0.23,0.23
			c-0.91-0.01-1.81,0-2.72-0.01c-0.03,0-0.06-0.01-0.12-0.02C146.7,28.42,147.24,21.47,147.78,14.48z M147.7,21.05
			c-0.03,0.38-0.07,0.73-0.09,1.07c0,0.05,0.08,0.14,0.13,0.16c1.01,0.37,2.03,0.73,3.04,1.09c0.05,0.02,0.11,0.03,0.2,0.05
			c0-0.3-0.01-0.58,0-0.85c0.01-0.15-0.07-0.21-0.19-0.26c-0.72-0.29-1.44-0.59-2.16-0.88C148.34,21.3,148.04,21.18,147.7,21.05z
			 M147.87,19.13c-0.03,0.35-0.05,0.66-0.09,0.97c-0.02,0.15,0.02,0.23,0.17,0.28c0.83,0.29,1.66,0.59,2.49,0.89
			c0.19,0.07,0.39,0.13,0.61,0.21c0-0.31-0.01-0.58,0-0.85c0.01-0.17-0.06-0.24-0.21-0.29c-0.57-0.23-1.14-0.47-1.71-0.7
			C148.73,19.48,148.32,19.31,147.87,19.13z M148.13,15.29c-0.03,0.36-0.04,0.67-0.08,0.98c-0.02,0.16,0.03,0.23,0.19,0.29
			c0.65,0.22,1.29,0.46,1.94,0.69c0.34,0.12,0.68,0.23,1.05,0.36c0-0.28-0.02-0.53,0.01-0.78c0.02-0.21-0.06-0.31-0.25-0.38
			c-0.67-0.26-1.33-0.54-1.99-0.81C148.72,15.52,148.44,15.41,148.13,15.29z M151.14,19.55c0-0.35,0.01-0.67-0.01-0.98
			c0-0.05-0.09-0.12-0.15-0.14c-0.68-0.28-1.37-0.56-2.05-0.84c-0.28-0.12-0.57-0.23-0.87-0.35c-0.03,0.34-0.05,0.66-0.1,0.97
			c-0.02,0.17,0.04,0.24,0.2,0.29c0.66,0.22,1.31,0.46,1.96,0.69C150.45,19.31,150.77,19.42,151.14,19.55z"/>
		<path d="M165.29,28.19c-0.2-0.62-0.25-1.24-0.18-1.89c0.1-0.89,0.15-1.79,0.22-2.69c0.12-1.5,0.24-3,0.37-4.49
			c0.01-0.08,0.1-0.18,0.18-0.21c0.71-0.3,1.42-0.58,2.14-0.86c0.4-0.16,0.8-0.32,1.2-0.48c0.08-0.03,0.17-0.06,0.28-0.1
			c0.32,5.98,0.64,11.93,0.96,17.91c-0.09,0-0.16,0.01-0.24,0.01c-1.09,0-2.18,0-3.27,0.01c-0.18,0-0.25-0.05-0.28-0.23
			c-0.18-0.92-0.37-1.83-0.56-2.75c-0.01-0.07-0.02-0.13-0.03-0.23c0.41-0.06,0.81-0.12,1.21-0.18c0.8-0.11,1.6-0.22,2.4-0.33
			c0.11-0.01,0.18-0.05,0.17-0.19c-0.04-0.43-0.08-0.86-0.12-1.33c-1.32,0.26-2.61,0.51-3.93,0.77c-0.05-0.26-0.1-0.49-0.13-0.72
			c-0.01-0.05,0.07-0.14,0.12-0.16c0.85-0.19,1.71-0.37,2.57-0.55c0.43-0.09,0.87-0.19,1.33-0.29c-0.02-0.45-0.05-0.89-0.07-1.37
			c-1.41,0.35-2.8,0.69-4.23,1.04C165.37,28.64,165.33,28.42,165.29,28.19c0.07-0.01,0.14-0.01,0.21-0.03
			c1.3-0.32,2.59-0.64,3.89-0.96c0.2-0.05,0.26-0.12,0.22-0.32c-0.03-0.16-0.02-0.33-0.04-0.5c-0.01-0.14-0.04-0.29-0.06-0.45
			c-1.36,0.37-2.68,0.73-4,1.1c-0.06,0.02-0.14,0.11-0.15,0.18C165.33,27.55,165.32,27.87,165.29,28.19z M165.47,26.39
			c0.16-0.04,0.29-0.07,0.42-0.1c1.16-0.29,2.33-0.58,3.49-0.88c0.06-0.01,0.14-0.09,0.14-0.14c0.01-0.37,0.01-0.75,0.01-1.15
			c-0.12,0.02-0.18,0.03-0.24,0.05c-0.76,0.22-1.52,0.44-2.28,0.66c-0.44,0.13-0.87,0.25-1.3,0.38c-0.07,0.02-0.16,0.09-0.17,0.14
			C165.51,25.69,165.5,26.03,165.47,26.39z M169.39,22.31c-0.06,0.01-0.09,0.01-0.12,0.02c-1.14,0.35-2.28,0.7-3.41,1.06
			c-0.05,0.02-0.13,0.08-0.13,0.13c-0.04,0.34-0.06,0.68-0.09,1.06c0.37-0.1,0.68-0.19,1-0.28c0.89-0.24,1.78-0.48,2.66-0.73
			c0.05-0.01,0.13-0.08,0.13-0.12C169.43,23.07,169.41,22.69,169.39,22.31z M165.8,22.72c0.05,0.01,0.07,0.01,0.08,0.01
			c1.12-0.32,2.25-0.65,3.37-0.97c0.05-0.02,0.13-0.08,0.12-0.13c-0.01-0.35-0.03-0.7-0.05-1.04c-0.05-0.01-0.07-0.01-0.08-0.01
			c-1.08,0.33-2.16,0.66-3.24,1c-0.05,0.02-0.11,0.09-0.11,0.14C165.85,22.05,165.83,22.38,165.8,22.72z M169.17,18.65
			c-0.42,0.15-0.79,0.29-1.16,0.43c-0.59,0.22-1.18,0.43-1.76,0.65c-0.07,0.03-0.17,0.09-0.18,0.14c-0.04,0.34-0.06,0.68-0.08,1.02
			c0.04,0,0.06,0.01,0.07,0.01c1.01-0.3,2.02-0.6,3.04-0.91c0.05-0.01,0.12-0.07,0.11-0.11C169.2,19.48,169.18,19.09,169.17,18.65z"
			/>
	</g>
	<g>
		<g>
			<path d="M115.02,31.44v-1.5l7.67-9.82h2.31l-7.61,9.82l-1.09-0.34h11.98v1.84H115.02z M123.36,35.12v-3.69l0.06-1.84v-3.26h2.01
				v8.79H123.36z"/>
			<path d="M134.4,35.3c-1.06,0-2.08-0.17-3.08-0.49c-0.99-0.33-1.8-0.77-2.43-1.33l0.99-1.69c0.5,0.47,1.15,0.86,1.95,1.16
				c0.8,0.3,1.65,0.45,2.55,0.45c1.14,0,2.02-0.24,2.64-0.73c0.61-0.49,0.92-1.14,0.92-1.95c0-0.56-0.14-1.04-0.41-1.46
				c-0.27-0.41-0.74-0.73-1.4-0.95c-0.66-0.22-1.58-0.33-2.73-0.33h-3.41l0.79-7.84h8.47v1.86h-7.67l1.12-1.05l-0.62,6.19
				l-1.11-1.03h2.89c1.5,0,2.71,0.19,3.62,0.58c0.91,0.39,1.58,0.92,1.99,1.6c0.42,0.68,0.62,1.46,0.62,2.35
				c0,0.86-0.21,1.64-0.62,2.35c-0.41,0.71-1.04,1.27-1.87,1.69C136.74,35.09,135.68,35.3,134.4,35.3z"/>
		</g>
	</g>
	<g>
		<path d="M10.45,35.26v-13.7l0.54,0.56H5.33v-1.86h12.37v1.86h-5.66l0.51-0.56v13.7H10.45z"/>
		<path d="M22.45,33.39h8.74v1.86H20.31v-15h10.59v1.86h-8.44V33.39z M22.26,26.72h7.72v1.82h-7.72V26.72z"/>
		<path d="M32.78,20.25h2.47l3.92,5.49l3.92-5.49h2.51l-5.08,7.2l5.49,7.8h-2.53l-4.31-5.98l-4.29,5.98h-2.47l5.47-7.72L32.78,20.25
			z"/>
		<path d="M48.21,35.26v-15h12.92v15h-2.1v-13.7l0.51,0.56H49.8l0.54-0.56v13.7H48.21z"/>
		<path d="M64.91,35.43c-0.21,0-0.43-0.01-0.64-0.04c-0.21-0.03-0.45-0.07-0.71-0.13l0.15-1.91c0.23,0.06,0.46,0.09,0.69,0.09
			c0.63,0,1.13-0.25,1.5-0.75c0.37-0.5,0.65-1.26,0.83-2.27c0.18-1.01,0.3-2.29,0.35-3.84l0.24-6.32h10.57v15h-2.1v-13.7l0.51,0.56
			h-7.61l0.47-0.58l-0.17,4.97c-0.04,1.49-0.14,2.79-0.3,3.9c-0.16,1.11-0.39,2.04-0.71,2.79c-0.31,0.74-0.72,1.3-1.21,1.67
			C66.27,35.24,65.65,35.43,64.91,35.43z"/>
		<path d="M80.47,35.26l6.79-15h2.12l6.82,15h-2.25l-6.06-13.8h0.86l-6.07,13.8H80.47z M83.36,31.5l0.58-1.71h8.44l0.62,1.71H83.36z
			"/>
		<path d="M100.94,35.26h-2.14v-15h2.14V35.26z M109.75,28.57h-9.02V26.7h9.02V28.57z M109.55,20.25h2.14v15h-2.14V20.25z"/>
	</g>
</g>
</svg>
